<svg xmlns="http://www.w3.org/2000/svg" width="21.781" height="21.781" viewBox="0 0 21.781 21.781">
  <path id="Icon_awesome-copyright" data-name="Icon awesome-copyright" d="M11.453.563a10.89,10.89,0,1,0,10.89,10.89A10.89,10.89,0,0,0,11.453.563ZM16.6,15.789A6.555,6.555,0,0,1,11.773,17.8a6.186,6.186,0,0,1-6.345-6.392,6.184,6.184,0,0,1,6.313-6.3,6.324,6.324,0,0,1,4.542,1.708.527.527,0,0,1,.054.642L15.354,8.98a.527.527,0,0,1-.8.1,4.467,4.467,0,0,0-2.717-1.049A3.143,3.143,0,0,0,8.59,11.374a3.286,3.286,0,0,0,3.262,3.5,4.305,4.305,0,0,0,2.878-1.257.527.527,0,0,1,.813.046l1.078,1.474a.527.527,0,0,1-.024.653Z" transform="translate(-0.563 -0.563)" fill="#565656"/>
</svg>
